<svg xmlns="http://www.w3.org/2000/svg" viewBox="0 0 20 20" xml:space="preserve">
<symbol id="icon" viewBox="0 0 20 20">
    <g>
        <path d="M7.5 3a.5.5 0 0 0-.5.5v9a.5.5 0 0 0 .5.5h9a.5.5 0 0 0 .5-.5v-9a.5.5 0 0 0-.5-.5zM8 4h8v8H8z"/>
        <path d="M5.492 4.992A.5.5 0 0 0 5 5.5v9a.5.5 0 0 0 .5.5h9a.5.5 0 1 0 0-1H6V5.5a.5.5 0 0 0-.508-.508zm-2 2A.5.5 0 0 0 3 7.5v9a.5.5 0 0 0 .5.5h9a.5.5 0 1 0 0-1H4V7.5a.5.5 0 0 0-.508-.508z"/>
        <path d="M16.484 3a.5.5 0 0 0-.338.146l-9 9A.5.5 0 0 0 7.5 13h9a.5.5 0 0 0 .5-.5v-9a.5.5 0 0 0-.516-.5z"/>
    </g>
</symbol>
</svg>